#!OML:ASF H:\Punching\Project 1\Capture day 1\Session 1\female.ASF
:FULLY-SPECIFIED
:DEGREES
3243
root 1.2509 15.7315 6.57724 12.3677 -10.8937 -4.06685
lowerback -5.70617 -2.6161 1.68553
upperback -9.40929 -3.50381 1.74216
thorax -6.61979 -1.82085 0.890369
lowerneck -11.0973 -8.1689 -2.71511
upperneck 31.4896 -11.8438 0.62543
head 12.4527 -5.64347 -0.969902
rclavicle 2.65502e-014 -8.74653e-015
rhumerus -36.5761 -13.6628 -68.4071
rradius 30.1999
rwrist 6.32453
rhand -12.8381 -3.14181
rfingers 7.12502
rthumb 13.2492 -32.7007
lclavicle 2.65502e-014 -8.74653e-015
lhumerus -45.7894 16.8738 69.2022
lradius 37.1044
lwrist -11.0122
lhand -18.5992 19.9126
lfingers 7.12502
lthumb 7.69205 49.7527
rfemur -13.2757 9.58658 19.6905
rtibia 20.7207
rfoot -14.4285 -19.6293
rtoes -3.93299
lfemur -10.5872 -15.9551 -11.6905
ltibia 22.6417
lfoot -23.4766 29.1271
ltoes 5.03817
3244
root 1.24428 15.7305 6.56827 12.3124 -10.8133 -4.09629
lowerback -5.72853 -2.62125 1.74514
upperback -9.45093 -3.51019 1.76683
thorax -6.6549 -1.82723 0.883794
lowerneck -11.0705 -8.16116 -2.71372
upperneck 31.6623 -11.8227 0.543855
head 12.5112 -5.6423 -1.00165
rclavicle -1.76421e-014 9.93923e-016
rhumerus -36.4789 -13.7896 -68.2577
rradius 29.9482
rwrist 6.64735
rhand -12.8168 -3.16516
rfingers 7.12502
rthumb 13.2698 -32.7227
lclavicle -1.76421e-014 9.93923e-016
lhumerus -45.5003 16.5223 69.5807
lradius 37.6651
lwrist -10.7765
lhand -18.7422 19.932
lfingers 7.12502
lthumb 7.55403 49.7772
rfemur -13.2152 9.54335 19.7761
rtibia 20.7072
rfoot -14.44 -19.6446
rtoes -3.86801
lfemur -10.5872 -15.9842 -11.6118
ltibia 22.6723
lfoot -23.4493 29.0801
ltoes 4.97079
3245
root 1.23869 15.7293 6.55997 12.2491 -10.7295 -4.12509
lowerback -5.74622 -2.62251 1.8101
upperback -9.49247 -3.51139 1.78864
thorax -6.69312 -1.83149 0.871533
lowerneck -11.0319 -8.15403 -2.71921
upperneck 31.8278 -11.8018 0.467036
head 12.5655 -5.64183 -1.02983
rclavicle 2.37299e-015 1.71452e-014
rhumerus -36.4072 -13.9286 -68.0976
rradius 29.6986
rwrist 6.9935
rhand -12.7666 -3.18404
rfingers 7.12502
rthumb 13.3182 -32.7385
lclavicle 2.37299e-015 1.71452e-014
lhumerus -45.2372 16.1562 69.9684
lradius 38.2293
lwrist -10.5407
lhand -18.8816 19.9401
lfingers 7.12502
lthumb 7.4194 49.79
rfemur -13.1441 9.49969 19.8584
rtibia 20.6958
rfoot -14.4535 -19.6644
rtoes -3.81005
lfemur -10.5741 -16.0138 -11.5407
ltibia 22.6979
lfoot -23.4212 29.0279
ltoes 4.90043
3246
root 1.2341 15.7278 6.55234 12.1786 -10.6445 -4.1507
lowerback -5.76308 -2.61907 1.87821
upperback -9.53241 -3.50641 1.8071
thorax -6.73052 -1.83302 0.854017
lowerneck -10.9819 -8.14749 -2.73508
upperneck 31.9837 -11.7813 0.39894
head 12.6151 -5.64205 -1.05235
rclavicle -3.52346e-014 -1.50082e-014
rhumerus -36.3636 -14.0611 -67.9356
rradius 29.463
rwrist 7.32658
rhand -12.6976 -3.2123
rfingers 7.12502
rthumb 13.3846 -32.7624
lclavicle -3.52346e-014 -1.50082e-014
lhumerus -44.9955 15.7809 70.3631
lradius 38.7883
lwrist -10.321
lhand -18.9972 19.9644
lfingers 7.12502
lthumb 7.30789 49.8182
rfemur -13.0665 9.46066 19.9335
rtibia 20.6908
rfoot -14.4732 -19.6906
rtoes -3.74631
lfemur -10.5463 -16.0461 -11.4801
ltibia 22.7144
lfoot -23.3908 28.9737
ltoes 4.82683
3247
root 1.23046 15.7261 6.54538 12.0999 -10.5588 -4.17185
lowerback -5.77212 -2.61716 1.94251
upperback -9.57032 -3.50316 1.82613
thorax -6.7699 -1.83512 0.839565
lowerneck -10.9355 -8.13544 -2.74717
upperneck 32.1336 -11.7521 0.32876
head 12.6626 -5.63827 -1.07503
rclavicle 1.29396e-014 -5.51627e-015
rhumerus -36.3371 -14.1778 -67.7818
rradius 29.2388
rwrist 7.63718
rhand -12.6416 -3.22213
rfingers 7.12502
rthumb 13.4386 -32.7686
lclavicle 1.29396e-014 -5.51627e-015
lhumerus -44.7733 15.4139 70.7547
lradius 39.3306
lwrist -10.1301
lhand -19.0909 20.0006
lfingers 7.12502
lthumb 7.21739 49.8576
rfemur -12.9824 9.42981 20.0001
rtibia 20.6941
rfoot -14.4991 -19.7258
rtoes -3.67865
lfemur -10.503 -16.0803 -11.4314
ltibia 22.7206
lfoot -23.3591 28.9179
ltoes 4.75317
3248
root 1.22777 15.7243 6.53905 12.0147 -10.4733 -4.18539
lowerback -5.78378 -2.61484 2.00274
upperback -9.6004 -3.49955 1.84265
thorax -6.79915 -1.83681 0.824246
lowerneck -10.8988 -8.11966 -2.75748
upperneck 32.2751 -11.7176 0.261929
head 12.7088 -5.63138 -1.0963
rclavicle -8.85896e-014 -2.65874e-014
rhumerus -36.3199 -14.2909 -67.6363
rradius 29.0232
rwrist 7.9264
rhand -12.593 -3.2733
rfingers 7.12502
rthumb 13.4855 -32.8167
lclavicle -8.85896e-014 -2.65874e-014
lhumerus -44.5611 15.0653 71.1387
lradius 39.8479
lwrist -9.99912
lhand -19.1602 20.0232
lfingers 7.12502
lthumb 7.1505 49.8824
rfemur -12.8952 9.40539 20.0546
rtibia 20.706
rfoot -14.5295 -19.7689
rtoes -3.6121
lfemur -10.4466 -16.123 -11.3974
ltibia 22.7163
lfoot -23.3257 28.867
ltoes 4.67033
3249
root 1.22596 15.7224 6.53328 11.9245 -10.3873 -4.19106
lowerback -5.78963 -2.61544 2.05279
upperback -9.6267 -3.49955 1.85953
thorax -6.8269 -1.83958 0.815096
lowerneck -10.878 -8.09666 -2.75488
upperneck 32.4135 -11.6726 0.189349
head 12.7556 -5.61879 -1.12106
rclavicle 3.75765e-014 2.98177e-015
rhumerus -36.3142 -14.4006 -67.4953
rradius 28.8134
rwrist 8.20817
rhand -12.5611 -3.22931
rfingers 7.12502
rthumb 13.5163 -32.7707
lclavicle 3.75765e-014 2.98177e-015
lhumerus -44.3716 14.7494 71.5081
lradius 40.3425
lwrist -9.94926
lhand -19.2022 20.0386
lfingers 7.12502
lthumb 7.10993 49.8991
rfemur -12.8054 9.38758 20.097
rtibia 20.7241
rfoot -14.5642 -19.8208
rtoes -3.545
lfemur -10.3816 -16.1731 -11.3772
ltibia 22.7042
lfoot -23.2916 28.8193
ltoes 4.58446
3250
root 1.22495 15.7207 6.52789 11.8328 -10.3 -4.18953
lowerback -5.79447 -2.61989 2.09328
upperback -9.64835 -3.50453 1.87747
thorax -6.84948 -1.84411 0.812201
lowerneck -10.8734 -8.06734 -2.7409
upperneck 32.5479 -11.6182 0.111387
head 12.8028 -5.60105 -1.14906
rclavicle -1.96921e-015 -2.53264e-014
rhumerus -36.3156 -14.5076 -67.3629
rradius 28.6115
rwrist 8.48288
rhand -12.531 -3.23196
rfingers 7.12502
rthumb 13.5453 -32.7714
lclavicle -1.96921e-015 -2.53264e-014
lhumerus -44.1986 14.4667 71.8644
lradius 40.809
lwrist -9.9732
lhand -19.2287 20.0318
lfingers 7.12502
lthumb 7.08441 49.8932
rfemur -12.7159 9.37955 20.1282
rtibia 20.7449
rfoot -14.5981 -19.8859
rtoes -3.48453
lfemur -10.3152 -16.2283 -11.3677
ltibia 22.688
lfoot -23.2528 28.7736
ltoes 4.48753
3251
root 1.22467 15.719 6.52296 11.7413 -10.2107 -4.18532
lowerback -5.80127 -2.6231 2.1318
upperback -9.66582 -3.50802 1.89314
thorax -6.86639 -1.84782 0.807718
lowerneck -10.8802 -8.03768 -2.71858
upperneck 32.678 -11.564 0.0327674
head 12.85 -5.58233 -1.17921
rclavicle -1.17654e-014 -1.5631e-014
rhumerus -36.3324 -14.6298 -67.2315
rradius 28.4159
rwrist 8.74944
rhand -12.5148 -3.20083
rfingers 7.12502
rthumb 13.5609 -32.7392
lclavicle -1.17654e-014 -1.5631e-014
lhumerus -44.0452 14.2063 72.2123
lradius 41.2541
lwrist -10.0659
lhand -19.2411 19.9963
lfingers 7.12502
lthumb 7.07244 49.8581
rfemur -12.6246 9.38309 20.1534
rtibia 20.7627
rfoot -14.6265 -19.9656
rtoes -3.43945
lfemur -10.2506 -16.2884 -11.3641
ltibia 22.6735
lfoot -23.2164 28.7286
ltoes 4.39598
3252
root 1.22505 15.7174 6.51848 11.651 -10.1169 -4.18063
lowerback -5.80888 -2.62567 2.17079
upperback -9.68589 -3.5106 1.90958
thorax -6.88568 -1.8511 0.803861
lowerneck -10.874 -8.00796 -2.70554
upperneck 32.7994 -11.5095 -0.0379954
head 12.8925 -5.56402 -1.20398
rclavicle -2.15215e-014 5.91384e-015
rhumerus -36.3781 -14.7522 -67.0965
rradius 28.2322
rwrist 8.99871
rhand -12.5056 -3.18431
rfingers 7.12502
rthumb 13.5697 -32.7221
lclavicle -2.15215e-014 5.91384e-015
lhumerus -43.92 13.964 72.5545
lradius 41.673
lwrist -10.2086
lhand -19.2347 19.9336
lfingers 7.12502
lthumb 7.07858 49.7952
rfemur -12.5294 9.39439 20.176
rtibia 20.7732
rfoot -14.6462 -20.0601
rtoes -3.40816
lfemur -10.1917 -16.3477 -11.3631
ltibia 22.6653
lfoot -23.1806 28.6784
ltoes 4.31636
3253
root 1.22606 15.716 6.51445 11.5635 -10.0177 -4.18182
lowerback -5.81676 -2.6261 2.21737
upperback -9.71081 -3.51023 1.92767
thorax -6.91054 -1.8534 0.797743
lowerneck -10.8513 -7.98017 -2.70372
upperneck 32.9138 -11.4577 -0.100462
head 12.9302 -5.54764 -1.22314
rclavicle -8.1626e-015 1.38652e-014
rhumerus -36.4587 -14.8631 -66.962
rradius 28.069
rwrist 9.21446
rhand -12.4973 -3.21318
rfingers 7.12502
rthumb 13.5777 -32.7504
lclavicle -8.1626e-015 1.38652e-014
lhumerus -43.8257 13.7295 72.8947
lradius 42.0691
lwrist -10.3699
lhand -19.2052 19.8581
lfingers 7.12502
lthumb 7.10707 49.7187
rfemur -12.4294 9.41299 20.2033
rtibia 20.773
rfoot -14.6589 -20.1686
rtoes -3.37717
lfemur -10.141 -16.4054 -11.3575
ltibia 22.6681
lfoot -23.1448 28.625
ltoes 4.23855
